<?xml version="1.0" encoding="UTF-8"?>
<svg width="600" height="400" viewBox="0 0 600 400" fill="none" xmlns="http://www.w3.org/2000/svg">
  <!-- White Background Card with Shadow -->
  <rect x="100" y="50" width="400" height="200" rx="12" fill="white" filter="drop-shadow(0 4px 6px rgba(0, 0, 0, 0.1))"/>
  
  <!-- Graph Bars -->
  <rect x="150" y="100" width="60" height="100" rx="4" fill="#E5E7EB"/>
  <rect x="230" y="80" width="60" height="120" rx="4" fill="#9CA3AF"/>
  <rect x="310" y="60" width="60" height="140" rx="4" fill="#4B5563"/>
  <rect x="390" y="40" width="60" height="160" rx="4" fill="#1F2937"/>
  
  <!-- Orange Growth Line -->
  <path d="M450 40 L470 20" stroke="#FF6B00" stroke-width="4" stroke-linecap="round"/>
  
  <!-- People Icons -->
  <g transform="translate(200, 300)">
    <!-- Dark Person -->
    <circle cx="0" cy="0" r="20" fill="#1F2937"/>
    <rect x="-10" y="20" width="20" height="30" rx="10" fill="#1F2937"/>
  </g>
  
  <g transform="translate(300, 300)">
    <!-- Orange Person -->
    <circle cx="0" cy="0" r="20" fill="#FF6B00"/>
    <rect x="-10" y="20" width="20" height="30" rx="10" fill="#FF6B00"/>
  </g>
  
  <g transform="translate(400, 300)">
    <!-- Light Orange Person -->
    <circle cx="0" cy="0" r="20" fill="#FF8C69"/>
    <rect x="-10" y="20" width="20" height="30" rx="10" fill="#FF8C69"/>
  </g>
</svg>
